HIERARCHY
ROOT Hips
{
	OFFSET 0.058547 100.481255 -0.522458
	CHANNELS 6 Xposition Yposition Zposition Xrotation Yrotation Zrotation 
	JOINT Spine
	{
		OFFSET -0.279214 12.230705 -2.892139
		CHANNELS 3 Xrotation Yrotation Zrotation
		JOINT Spine1
		{
			OFFSET -0.232678 10.192256 -1.242257
			CHANNELS 3 Xrotation Yrotation Zrotation
			JOINT Spine1_split
			{
				OFFSET -0.232678 10.192256 -1.242257
				CHANNELS 3 Xrotation Yrotation Zrotation
				JOINT Spine2
				{
					OFFSET -0.232678 10.192256 -1.242257
					CHANNELS 3 Xrotation Yrotation Zrotation
					JOINT Neck
					{
						OFFSET -0.418821 17.814224 8.416937
						CHANNELS 3 Xrotation Yrotation Zrotation
						JOINT Head
						{
							OFFSET 0.000000 7.031097 3.806764
							CHANNELS 3 Xrotation Yrotation Zrotation
							JOINT HeadTop_End
							{
								OFFSET 0.000000 24.646591 12.978601
								CHANNELS 3 Xrotation Yrotation Zrotation
								End Site
								{
									OFFSET 0.000000 0.000000 0.000000
								}
							}
						}
					}
					JOINT LeftShoulder
					{
						OFFSET 8.476512 7.247673 -3.868757
						CHANNELS 3 Xrotation Yrotation Zrotation
						JOINT LeftShoulder_split
						{
							OFFSET 8.476512 7.247673 -3.868757
							CHANNELS 3 Xrotation Yrotation Zrotation
							JOINT LeftArm
							{
								OFFSET 9.308996 -2.777740 0.208551
								CHANNELS 3 Xrotation Yrotation Zrotation
								JOINT LeftForeArm
								{
									OFFSET 29.972336 0.000015 0.000022
									CHANNELS 3 Xrotation Yrotation Zrotation
									JOINT LeftHand
									{
										OFFSET 26.026470 0.000015 0.000033
										CHANNELS 3 Xrotation Yrotation Zrotation
										JOINT LeftHandThumb1
										{
											OFFSET 12.240555 -7.117950 9.230400
											CHANNELS 3 Xrotation Yrotation Zrotation
											JOINT LeftHandThumb2
											{
												OFFSET 4.138626 -2.389450 2.389374
												CHANNELS 3 Xrotation Yrotation Zrotation
												JOINT LeftHandThumb3
												{
													OFFSET 2.726952 -1.574417 1.574393
													CHANNELS 3 Xrotation Yrotation Zrotation
													JOINT LeftHandThumb4
													{
														OFFSET 3.940979 -2.275375 2.275301
														CHANNELS 3 Xrotation Yrotation Zrotation
														End Site
														{
															OFFSET 0.000000 0.000000 0.000000
														}
													}
												}
											}
										}
										JOINT LeftHandIndex1
										{
											OFFSET 24.424660 -1.966187 5.959913
											CHANNELS 3 Xrotation Yrotation Zrotation
											JOINT LeftHandIndex2
											{
												OFFSET 6.426682 0.000015 0.000035
												CHANNELS 3 Xrotation Yrotation Zrotation
												JOINT LeftHandIndex3
												{
													OFFSET 5.337883 -0.000031 0.000035
													CHANNELS 3 Xrotation Yrotation Zrotation
													JOINT LeftHandIndex4
													{
														OFFSET 4.409393 -0.000015 0.000044
														CHANNELS 3 Xrotation Yrotation Zrotation
														End Site
														{
															OFFSET 0.000000 0.000000 0.000000
														}
													}
												}
											}
										}
										JOINT LeftHandMiddle1
										{
											OFFSET 23.810127 0.000000 0.000041
											CHANNELS 3 Xrotation Yrotation Zrotation
											JOINT LeftHandMiddle2
											{
												OFFSET 7.176491 -0.000015 0.000051
												CHANNELS 3 Xrotation Yrotation Zrotation
												JOINT LeftHandMiddle3
												{
													OFFSET 6.774864 -0.000015 0.000032
													CHANNELS 3 Xrotation Yrotation Zrotation
													JOINT LeftHandMiddle4
													{
														OFFSET 5.402740 -0.027710 -0.077597
														CHANNELS 3 Xrotation Yrotation Zrotation
														End Site
														{
															OFFSET 0.000000 0.000000 0.000000
														}
													}
												}
											}
										}
										JOINT LeftHandRing1
										{
											OFFSET 22.908371 -0.858917 -6.017762
											CHANNELS 3 Xrotation Yrotation Zrotation
											JOINT LeftHandRing2
											{
												OFFSET 6.337524 0.000000 -0.000050
												CHANNELS 3 Xrotation Yrotation Zrotation
												JOINT LeftHandRing3
												{
													OFFSET 5.779289 0.000000 -0.000029
													CHANNELS 3 Xrotation Yrotation Zrotation
													JOINT LeftHandRing4
													{
														OFFSET 4.965714 0.000031 -0.000057
														CHANNELS 3 Xrotation Yrotation Zrotation
														End Site
														{
															OFFSET 0.000000 0.000000 0.000000
														}
													}
												}
											}
										}
										JOINT LeftHandPinky1
										{
											OFFSET 20.036995 -1.565994 -10.945109
											CHANNELS 3 Xrotation Yrotation Zrotation
											JOINT LeftHandPinky2
											{
												OFFSET 5.254700 -0.000015 0.000002
												CHANNELS 3 Xrotation Yrotation Zrotation
												JOINT LeftHandPinky3
												{
													OFFSET 4.810226 -0.000015 -0.000019
													CHANNELS 3 Xrotation Yrotation Zrotation
													JOINT LeftHandPinky4
													{
														OFFSET 3.647247 0.000015 -0.000044
														CHANNELS 3 Xrotation Yrotation Zrotation
														End Site
														{
															OFFSET 0.000000 0.000000 0.000000
														}
													}
												}
											}
										}
									}
								}
							}
						}
					}
					JOINT RightShoulder
					{
						OFFSET -7.570480 7.247673 -3.868757
						CHANNELS 3 Xrotation Yrotation Zrotation
						JOINT RightShoulder_split
						{
							OFFSET -7.570480 7.247673 -3.868757
							CHANNELS 3 Xrotation Yrotation Zrotation
							JOINT RightArm
							{
								OFFSET -9.309000 -2.777725 0.208549
								CHANNELS 3 Xrotation Yrotation Zrotation
								JOINT RightForeArm
								{
									OFFSET -29.972336 0.000061 -0.000048
									CHANNELS 3 Xrotation Yrotation Zrotation
									JOINT RightHand
									{
										OFFSET -26.026474 0.000092 0.000017
										CHANNELS 3 Xrotation Yrotation Zrotation
										JOINT RightHandThumb1
										{
											OFFSET -12.240570 -7.117905 9.230402
											CHANNELS 3 Xrotation Yrotation Zrotation
											JOINT RightHandThumb2
											{
												OFFSET -4.138580 -2.389465 2.389442
												CHANNELS 3 Xrotation Yrotation Zrotation
												JOINT RightHandThumb3
												{
													OFFSET -2.726990 -1.574402 1.574351
													CHANNELS 3 Xrotation Yrotation Zrotation
													JOINT RightHandThumb4
													{
														OFFSET -3.940971 -2.275345 2.275330
														CHANNELS 3 Xrotation Yrotation Zrotation
														End Site
														{
															OFFSET 0.000000 0.000000 0.000000
														}
													}
												}
											}
										}
										JOINT RightHandIndex1
										{
											OFFSET -24.424667 -1.966171 5.959853
											CHANNELS 3 Xrotation Yrotation Zrotation
											JOINT RightHandIndex2
											{
												OFFSET -6.426682 -0.000046 0.000010
												CHANNELS 3 Xrotation Yrotation Zrotation
												JOINT RightHandIndex3
												{
													OFFSET -5.337891 0.000015 0.000031
													CHANNELS 3 Xrotation Yrotation Zrotation
													JOINT RightHandIndex4
													{
														OFFSET -4.409386 0.000015 0.000044
														CHANNELS 3 Xrotation Yrotation Zrotation
														End Site
														{
															OFFSET 0.000000 0.000000 0.000000
														}
													}
												}
											}
										}
										JOINT RightHandMiddle1
										{
											OFFSET -23.810127 -0.000015 -0.000027
											CHANNELS 3 Xrotation Yrotation Zrotation
											JOINT RightHandMiddle2
											{
												OFFSET -7.176491 -0.000046 -0.000001
												CHANNELS 3 Xrotation Yrotation Zrotation
												JOINT RightHandMiddle3
												{
													OFFSET -6.774857 -0.000046 0.000038
													CHANNELS 3 Xrotation Yrotation Zrotation
													JOINT RightHandMiddle4
													{
														OFFSET -5.402740 -0.027740 -0.077594
														CHANNELS 3 Xrotation Yrotation Zrotation
														End Site
														{
															OFFSET 0.000000 0.000000 0.000000
														}
													}
												}
											}
										}
										JOINT RightHandRing1
										{
											OFFSET -22.908348 -0.858963 -6.017824
											CHANNELS 3 Xrotation Yrotation Zrotation
											JOINT RightHandRing2
											{
												OFFSET -6.337524 0.000046 -0.000019
												CHANNELS 3 Xrotation Yrotation Zrotation
												JOINT RightHandRing3
												{
													OFFSET -5.779289 0.000046 -0.000004
													CHANNELS 3 Xrotation Yrotation Zrotation
													JOINT RightHandRing4
													{
														OFFSET -4.965721 -0.000031 -0.000032
														CHANNELS 3 Xrotation Yrotation Zrotation
														End Site
														{
															OFFSET 0.000000 0.000000 0.000000
														}
													}
												}
											}
										}
										JOINT RightHandPinky1
										{
											OFFSET -20.036957 -1.566071 -10.945158
											CHANNELS 3 Xrotation Yrotation Zrotation
											JOINT RightHandPinky2
											{
												OFFSET -5.254700 0.000031 -0.000025
												CHANNELS 3 Xrotation Yrotation Zrotation
												JOINT RightHandPinky3
												{
													OFFSET -4.810226 -0.000015 -0.000048
													CHANNELS 3 Xrotation Yrotation Zrotation
													JOINT RightHandPinky4
													{
														OFFSET -3.647247 -0.000031 -0.000029
														CHANNELS 3 Xrotation Yrotation Zrotation
														End Site
														{
															OFFSET 0.000000 0.000000 0.000000
														}
													}
												}
											}
										}
									}
								}
							}
						}
					}
				}
			}
		}
	}
	JOINT LeftUpLeg
	{
		OFFSET 15.427091 -6.655090 0.678631
		CHANNELS 3 Xrotation Yrotation Zrotation
		JOINT LeftLeg
		{
			OFFSET 4.088469 -39.590321 13.023970
			CHANNELS 3 Xrotation Yrotation Zrotation
			JOINT LeftFoot
			{
				OFFSET -4.073973 -37.708702 -15.979749
				CHANNELS 3 Xrotation Yrotation Zrotation
				JOINT LeftToeBase
				{
					OFFSET 5.346369 -15.068922 20.645004
					CHANNELS 3 Xrotation Yrotation Zrotation
					JOINT LeftToe_End
					{
						OFFSET 2.754658 0.931270 11.300900
						CHANNELS 3 Xrotation Yrotation Zrotation
						End Site
						{
							OFFSET 0.000000 0.000000 0.000000
						}
					}
				}
			}
		}
	}
	JOINT RightUpLeg
	{
		OFFSET -15.569522 -6.655090 0.678631
		CHANNELS 3 Xrotation Yrotation Zrotation
		JOINT RightLeg
		{
			OFFSET -4.074467 -39.591820 13.023795
			CHANNELS 3 Xrotation Yrotation Zrotation
			JOINT RightFoot
			{
				OFFSET 4.088761 -37.707176 -15.979579
				CHANNELS 3 Xrotation Yrotation Zrotation
				JOINT RightToeBase
				{
					OFFSET -5.346370 -15.068919 20.645004
					CHANNELS 3 Xrotation Yrotation Zrotation
					JOINT RightToe_End
					{
						OFFSET -2.754656 0.931271 11.300900
						CHANNELS 3 Xrotation Yrotation Zrotation
						End Site
						{
							OFFSET 0.000000 0.000000 0.000000
						}
					}
				}
			}
		}
	}
}
MOTION
Frames: 4
Frame Time: 0.016667
-1.590422 91.646660 -0.331538 0.297740 -22.156879 -3.236428 -5.537061 25.314646 11.523882 3.997429 3.936051 -7.691238 0.000000 0.000000 0.000000 4.476293 3.961410 -7.425024 3.040561 -3.094702 4.070854 6.875136 -11.753987 7.892890 -0.000000 -0.000000 -0.000000 0.325191 0.835601 7.865631 0.000000 0.000000 0.000000 18.923466 3.006785 -26.229359 -0.000056 -105.022225 -0.000055 20.915532 -47.228484 25.936617 -1.609225 1.175395 6.205299 4.731198 17.340643 1.395717 -0.138054 6.266781 2.986292 -0.000000 -0.000000 0.000000 2.089389 4.864137 -46.471333 2.090051 4.864775 -46.479120 0.543305 2.646883 -23.195177 -0.000002 0.000001 -0.000000 2.088594 4.863397 -46.455269 2.091407 4.865269 -46.495188 0.220974 1.889645 -22.888662 -0.000004 -0.000000 0.000000 2.089389 4.864137 -46.471330 2.090051 4.864778 -46.479116 0.542852 2.645813 -23.195143 -0.000001 0.000000 -0.000000 5.043146 7.662642 -46.296545 2.107262 0.793338 -46.827616 0.543303 2.646878 -23.195165 -0.000001 -0.000001 -0.000000 0.758278 1.963742 2.804329 0.000000 0.000000 0.000000 -22.944347 12.193086 67.814134 -0.000414 112.125034 0.000671 37.071634 -11.094222 41.900540 -1.901082 0.148497 -6.083175 6.197607 -26.086823 -1.247769 -0.484038 -8.574533 -2.983520 0.000001 0.000000 0.000000 0.106733 -1.199276 10.170798 0.106737 -1.199283 10.170782 0.026739 -0.602000 5.084840 -0.000001 -0.000001 -0.000004 0.106733 -1.199276 10.170798 0.106737 -1.199283 10.170783 -0.044093 0.217821 4.790861 -0.000003 -0.000002 0.000000 0.106737 -1.199276 10.171694 0.106712 -1.199280 10.169879 0.026741 -0.601993 5.084843 -0.000001 0.000001 -0.000001 0.106733 -1.199276 10.170795 0.106733 -1.199281 10.170786 0.026739 -0.601993 5.084842 0.000001 0.000001 0.000004 -9.361380 -0.443965 -2.778194 32.794071 9.897582 6.448746 -17.492716 7.591717 -3.685318 -11.032232 -0.000004 -0.000000 -0.000000 -0.000000 0.000000 -7.821985 -16.788788 9.710410 24.831863 9.709227 -1.646390 -14.361917 2.758430 -13.551533 -0.311399 -0.000002 0.000001 -0.000000 0.000002 -0.000000 
-1.695676 91.370041 -0.454279 0.977814 -23.606573 -1.482081 -5.609937 25.896333 11.054631 4.220426 3.950582 -8.490481 0.000000 0.000000 0.000000 4.749215 3.992889 -8.204205 2.987701 -2.928618 4.057882 6.667902 -11.048125 8.304519 0.000001 0.000000 -0.000000 0.327252 0.857188 7.499467 0.000000 0.000000 0.000000 15.352247 6.330878 -25.965774 0.000060 -103.369381 0.000069 20.765744 -47.411471 25.817615 -1.606918 1.362652 6.151379 4.731197 17.340640 1.395717 -0.138055 6.266781 2.986289 0.000001 0.000000 -0.000002 2.107933 4.881622 -46.689667 2.108932 4.882567 -46.701412 0.548419 2.658786 -23.305765 -0.000001 -0.000000 -0.000000 2.107145 4.880896 -46.673613 2.110291 4.883061 -46.717493 0.224622 1.902175 -22.999135 -0.000002 -0.000001 0.000001 2.107933 4.881622 -46.689664 2.108932 4.882567 -46.701408 0.547959 2.657727 -23.305731 -0.000001 -0.000001 -0.000000 5.072507 7.668881 -46.516679 2.126186 0.811026 -47.048556 0.548429 2.658784 -23.305760 -0.000001 0.000001 -0.000000 0.652811 1.559985 2.089282 0.000000 0.000000 0.000000 -24.252352 16.887790 68.982452 -0.000499 112.051760 0.000757 37.260540 -9.837752 43.734528 -1.904495 1.610623 -5.860365 6.023939 -24.034592 -1.144897 -0.570277 -7.551162 -2.884921 -0.000000 0.000001 -0.000001 0.106732 -1.199273 10.170798 0.106734 -1.199285 10.170783 0.026737 -0.601998 5.084844 -0.000001 0.000000 -0.000001 0.106732 -1.199273 10.170798 0.106734 -1.199285 10.170783 -0.044096 0.217823 4.790862 0.000002 0.000003 -0.000001 0.106735 -1.199278 10.171695 0.106713 -1.199280 10.169878 0.026738 -0.601992 5.084844 0.000002 0.000002 -0.000001 0.106732 -1.199273 10.170797 0.106734 -1.199283 10.170782 0.026739 -0.601995 5.084842 0.000002 -0.000003 -0.000000 -8.288297 0.143245 -3.451583 30.791650 9.783428 4.327702 -19.312008 8.192594 -1.661702 -8.142656 0.000002 -0.000001 -0.000000 0.000001 -0.000000 -10.155218 -17.278654 9.113484 27.661356 8.330741 -3.744551 -15.530764 5.181276 -14.748559 -2.556153 -0.000005 -0.000002 0.000000 -0.000001 -0.000000 
-1.792486 91.170868 -0.562023 1.693037 -24.587617 0.273996 -5.688049 26.030836 10.663656 4.475672 3.888728 -9.274568 0.000000 0.000000 0.000000 5.047278 3.947506 -8.970703 2.899901 -2.740072 4.005313 6.479660 -10.247164 8.642149 -0.000000 0.000000 -0.000000 0.367765 0.793789 6.904534 0.000000 0.000000 0.000000 11.148304 9.296232 -25.825599 -0.000022 -101.631664 0.000008 20.737137 -47.607163 25.742768 -1.604634 1.522308 6.105035 4.731202 17.340641 1.395717 -0.138055 6.266782 2.986291 0.000001 -0.000000 -0.000001 2.111022 4.884545 -46.725932 2.111931 4.885381 -46.736628 0.549232 2.660660 -23.323269 0.000001 -0.000001 -0.000001 2.110233 4.883809 -46.709867 2.113298 4.885880 -46.752696 0.225211 1.904147 -23.016624 -0.000002 0.000000 -0.000000 2.111022 4.884545 -46.725935 2.111932 4.885381 -46.736631 0.548777 2.659602 -23.323248 0.000002 -0.000000 -0.000001 5.077382 7.669908 -46.553234 2.129185 0.813826 -47.083574 0.549238 2.660661 -23.323260 -0.000001 -0.000000 -0.000001 0.538050 0.995601 1.420891 0.000000 0.000000 0.000000 -25.308247 21.678226 69.527849 -0.000424 111.950735 0.000673 37.055446 -8.761993 44.810586 -1.912380 2.917658 -5.660918 5.874140 -22.277145 -1.052699 -0.645401 -6.674748 -2.799408 0.000000 -0.000000 -0.000001 0.106733 -1.199274 10.170796 0.106735 -1.199281 10.170782 0.026736 -0.602000 5.084840 -0.000002 0.000000 -0.000002 0.106733 -1.199274 10.170795 0.106736 -1.199279 10.170782 -0.044093 0.217822 4.790862 -0.000000 -0.000003 0.000002 0.106736 -1.199278 10.171694 0.106713 -1.199278 10.169879 0.026737 -0.601999 5.084839 0.000000 -0.000001 0.000001 0.106733 -1.199274 10.170795 0.106736 -1.199281 10.170783 0.026735 -0.601997 5.084836 0.000002 0.000000 0.000001 -7.419677 0.642429 -4.216336 28.797608 9.647506 2.540187 -20.599577 8.324509 0.096819 -5.751717 -0.000009 -0.000002 0.000000 0.000000 -0.000000 -14.197321 -16.984485 7.433780 31.563889 8.099575 -5.053597 -13.440328 5.885548 -12.742354 -6.546776 -0.000006 0.000001 0.000000 -0.000001 -0.000000 
-1.883523 91.005127 -0.643081 2.315596 -25.069948 1.960079 -5.588630 25.769578 10.335226 4.668289 3.770795 -10.047021 0.000000 0.000000 0.000000 5.276399 3.841544 -9.734970 2.826790 -2.552323 3.939368 6.357958 -9.443910 8.899216 0.000001 -0.000000 0.000000 0.452092 0.628425 6.086860 0.000000 0.000000 0.000000 6.437495 11.824058 -25.813476 0.000068 -99.886954 0.000093 20.839923 -47.810276 25.748657 -1.602647 1.639135 6.067821 4.731199 17.340641 1.395715 -0.138054 6.266781 2.986293 -0.000001 -0.000000 0.000000 2.093829 4.868338 -46.523629 2.094416 4.868922 -46.530664 0.544487 2.649633 -23.220799 0.000003 -0.000000 -0.000000 2.093040 4.867603 -46.507581 2.095775 4.869399 -46.546715 0.221819 1.892553 -22.914282 -0.000000 -0.000000 -0.000000 2.093829 4.868338 -46.523632 2.094414 4.868924 -46.530660 0.544029 2.648571 -23.220773 0.000000 0.000000 -0.000000 5.050180 7.664158 -46.349278 2.111641 0.797435 -46.878826 0.544496 2.649631 -23.220799 -0.000003 -0.000000 0.000000 0.421122 0.305507 0.829029 0.000000 0.000000 0.000000 -25.730919 26.372277 69.238768 -0.000381 111.984155 0.000643 36.658653 -8.076588 44.969286 -1.923930 4.143671 -5.473417 5.743079 -20.751295 -0.969554 -0.711587 -5.913855 -2.724339 -0.000000 0.000001 -0.000001 0.106732 -1.199272 10.170799 0.106735 -1.199283 10.170778 0.026736 -0.601998 5.084838 -0.000000 -0.000001 0.000001 0.106733 -1.199272 10.170799 0.106736 -1.199283 10.170778 -0.044093 0.217826 4.790862 -0.000000 0.000000 -0.000003 0.106736 -1.199275 10.171694 0.106713 -1.199275 10.169876 0.026734 -0.602001 5.084839 0.000000 -0.000001 -0.000000 0.106732 -1.199272 10.170797 0.106734 -1.199279 10.170778 0.026733 -0.602002 5.084838 0.000004 -0.000003 -0.000000 -6.720201 0.890296 -5.076505 26.987602 9.466969 1.119476 -21.362364 8.234895 1.381165 -3.947315 0.000008 0.000004 0.000000 0.000001 0.000000 -18.721494 -15.938755 5.354605 35.503279 8.111423 -5.815282 -9.564030 5.978402 -9.524601 -12.254654 0.000001 -0.000001 0.000001 0.000001 -0.000000 
